<svg xmlns="http://www.w3.org/2000/svg" width="650" height="139" viewBox="0 0 650 139" version="1.1"><path d="M 36 76.500 C 36 103.175, 36.216 125, 36.480 125 C 36.744 125, 38.769 124.276, 40.980 123.391 C 45.712 121.498, 46.392 119.472, 42 120.350 C 39.487 120.853, 39 120.633, 39 119.001 C 39 117.853, 40.214 116.424, 41.950 115.526 C 47.334 112.742, 48 113.289, 48 120.500 L 48 127 40.500 127 L 33 127 33 87.500 C 33 61.833, 32.650 48, 32 48 C 31.127 48, 30.193 110.208, 30.929 119.365 C 31.470 126.102, 30.661 126.885, 22.822 127.206 C 18.203 127.396, 15.513 127.944, 15.247 128.750 C 14.920 129.738, 24.296 130, 59.917 130 C 85.705 130, 105 129.618, 105 129.107 C 105 127.384, 101.709 127, 86.918 127 L 72 127 72 120.500 C 72 116.925, 72.338 114.005, 72.750 114.011 C 73.162 114.017, 75.709 114.692, 78.409 115.511 C 84.067 117.227, 85 117.319, 85 116.157 C 85 115.147, 71.315 111.018, 70.540 111.793 C 70.243 112.090, 70 115.633, 70 119.667 C 70 126.333, 69.818 127, 68 127 C 66.129 127, 66 126.333, 66 116.667 C 66 110.983, 66.259 106.075, 66.575 105.759 C 66.891 105.443, 70.153 106.053, 73.825 107.114 C 84.292 110.142, 85 110.277, 85 109.248 C 85 108.715, 80.725 107.017, 75.500 105.474 C 67.014 102.968, 66 102.419, 66 100.334 C 66 99.004, 66.600 98, 67.395 98 C 68.526 98, 78.020 100.626, 83.750 102.523 C 84.438 102.751, 85 102.533, 85 102.039 C 85 101.545, 80.838 99.859, 75.750 98.293 L 66.500 95.446 66.202 89.223 C 65.983 84.644, 66.247 83, 67.199 83 C 67.911 83, 72.011 84.171, 76.310 85.603 C 80.609 87.035, 84.398 87.935, 84.730 87.603 C 85.559 86.775, 85.621 86.803, 75.500 83.434 C 68.087 80.966, 66.444 80.047, 66.180 78.219 C 65.773 75.391, 66.686 75.416, 76.401 78.500 C 85.450 81.372, 85 81.291, 85 80.054 C 85 79.534, 80.838 77.795, 75.750 76.189 L 66.500 73.271 66.190 68.385 C 66.020 65.698, 65.457 63.072, 64.940 62.550 C 64.353 61.957, 64 73.884, 64 94.300 C 64 122.700, 63.803 127, 62.500 127 C 61.244 127, 61 124.901, 61 114.107 C 61 103.569, 60.726 101.109, 59.500 100.638 C 58.212 100.144, 58 101.970, 58 113.531 C 58 121.844, 57.617 127, 57 127 C 56.367 127, 56 119.806, 56 107.417 C 56 92.195, 55.722 87.926, 54.750 88.249 C 53.821 88.558, 53.430 93.585, 53.228 107.833 C 53 123.957, 52.722 127, 51.478 127 C 50.289 127, 50 125.326, 50 118.433 C 50 108.858, 50.463 109.210, 42.272 112.560 C 40.496 113.286, 38.807 113.497, 38.519 113.030 C 37.388 111.200, 39.255 109.388, 44.266 107.453 L 49.500 105.432 49.775 89.716 C 49.927 81.072, 49.869 74, 49.648 74 C 47.644 74, 42 77.357, 42 78.549 C 42 79.743, 42.416 79.848, 43.934 79.035 C 46.780 77.512, 48 77.765, 48 79.879 C 48 81.023, 46.828 82.243, 45 83 C 43.350 83.683, 42 84.911, 42 85.728 C 42 86.652, 42.567 86.984, 43.500 86.607 C 44.325 86.273, 45.675 85.727, 46.500 85.393 C 47.558 84.965, 48 85.423, 48 86.945 C 48 88.445, 47.084 89.423, 45 90.150 C 43.350 90.725, 42 91.875, 42 92.705 C 42 93.649, 42.561 93.987, 43.500 93.607 C 44.325 93.273, 45.675 92.727, 46.500 92.393 C 47.549 91.969, 48 92.416, 48 93.880 C 48 95.340, 46.905 96.431, 44.378 97.487 C 42.386 98.319, 40.361 99, 39.878 99 C 39.391 99, 39 83.208, 39 63.500 C 39 32.611, 38.805 28, 37.500 28 C 36.187 28, 36 34.056, 36 76.500 M 54 70.500 C 54 79.500, 54.379 85, 55 85 C 55.621 85, 56 79.500, 56 70.500 C 56 61.500, 55.621 56, 55 56 C 54.379 56, 54 61.500, 54 70.500 M 42 61 C 42 63.200, 42.450 65, 43 65 C 43.550 65, 44 63.200, 44 61 C 44 58.800, 43.550 57, 43 57 C 42.450 57, 42 58.800, 42 61 M 48 62.379 C 48 67.412, 47.807 67.837, 45 69 C 43.350 69.683, 42 70.863, 42 71.621 C 42 73.328, 41.968 73.329, 46.378 71.487 L 50 69.973 50 63.487 C 50 59.829, 49.564 57, 49 57 C 48.450 57, 48 59.420, 48 62.379 M 59.823 63 C 58.776 65.317, 58.174 99, 59.179 99 C 59.665 99, 60.285 98.422, 60.556 97.715 C 61.318 95.730, 60.590 61.300, 59.823 63 M 70.550 90.868 C 72.264 92.434, 85.125 95.876, 84.720 94.660 C 84.512 94.035, 81.902 92.758, 78.921 91.823 C 72.929 89.943, 69.054 89.501, 70.550 90.868 M 42.814 100.708 C 39.106 102.232, 37.264 104.664, 38.718 106.118 C 39.150 106.550, 41.414 106.046, 43.751 105 C 46.748 103.658, 48 102.494, 48 101.049 C 48 98.688, 47.770 98.673, 42.814 100.708 M 75 120.902 C 75 122.029, 80.504 124, 83.649 124 C 87.530 124, 86.306 122.314, 81.557 121.119 C 76.178 119.764, 75 119.725, 75 120.902" stroke="none" fill="#eca82d" fill-rule="evenodd"/><path d="M 30.236 66.763 C 30.434 108.298, 30.518 110.902, 30.750 82.551 C 30.940 59.241, 31.371 48.388, 32.126 47.922 C 32.845 47.478, 33.168 42.872, 33.062 34.590 L 32.898 21.937 47.949 29.475 L 63 37.013 63.229 82.256 L 63.459 127.500 63.979 94.500 C 64.266 76.350, 64.823 62.175, 65.218 63 C 65.613 63.825, 66.063 66.521, 66.218 68.991 C 66.435 72.442, 66.910 73.519, 68.270 73.640 C 69.511 73.750, 69.586 73.656, 68.520 73.325 C 67.230 72.925, 67 69.988, 67 53.947 L 67 35.041 62.795 32.895 L 58.590 30.750 63.045 28.420 C 65.495 27.139, 67.838 26.070, 68.250 26.045 C 68.662 26.020, 69 34.236, 69 44.303 L 69 62.606 76.250 64.936 C 80.237 66.217, 84.063 67.479, 84.750 67.740 C 85.480 68.017, 86 67.417, 86 66.300 C 86 64.831, 84.544 63.920, 79.750 62.387 L 73.500 60.388 73.228 41.154 C 73.014 25.979, 72.667 21.810, 71.586 21.395 C 70.833 21.106, 66.678 22.648, 62.354 24.822 L 54.493 28.775 47.496 25.234 C 43.648 23.287, 38.138 20.644, 35.250 19.360 L 30 17.025 30.236 66.763 M 37.750 27.662 C 38.438 27.940, 39 28.750, 39 29.462 C 39 30.174, 40.423 31.347, 42.162 32.067 C 45.204 33.327, 45.241 33.413, 43.162 34.341 C 41.078 35.271, 41 35.875, 41 51.153 C 41 59.869, 41.188 67, 41.418 67 C 41.648 67, 42.548 66.727, 43.418 66.393 C 44.759 65.879, 45 63.599, 45 51.443 C 45 34.379, 45.426 33.662, 53.213 37.608 L 58 40.034 58 50.017 C 58 55.508, 58.188 60, 58.418 60 C 61.551 60, 62 58.541, 62 48.364 L 62 37.942 50.852 32.471 C 44.721 29.462, 38.983 27.036, 38.102 27.079 C 37.068 27.130, 36.943 27.337, 37.750 27.662 M 47.189 52.750 C 47.293 61.413, 47.541 65.912, 47.739 62.750 C 47.937 59.587, 48.564 57, 49.132 57 C 49.774 57, 50.039 59.611, 49.832 63.908 C 49.649 67.707, 49.837 70.606, 50.250 70.349 C 50.663 70.092, 51 63.582, 51 55.882 C 51 46.803, 51.352 42.099, 52 42.500 C 52.616 42.881, 53 51.344, 53 64.559 C 53 84.342, 53.135 85.994, 54.750 85.921 C 55.795 85.874, 55.997 85.639, 55.250 85.338 C 53.674 84.702, 53.430 56, 55 56 C 55.578 56, 56 52.840, 56 48.520 L 56 41.041 52.040 39.020 C 49.862 37.909, 47.837 37, 47.540 37 C 47.243 37, 47.085 44.087, 47.189 52.750 M 409 43.896 L 406.500 44.593 406.500 71.218 L 406.500 97.842 408.873 100.366 C 410.915 102.539, 419.735 105.599, 420.821 104.512 C 421.012 104.321, 421.415 102.328, 421.716 100.083 C 422.156 96.802, 421.954 96, 420.688 96 C 419.822 96, 418.413 95, 417.557 93.777 C 416.252 91.914, 416 87.632, 416 67.277 L 416 43 413.750 43.100 C 412.512 43.155, 410.375 43.513, 409 43.896 M 528.250 43.723 L 525 44.127 525 70.113 C 525 101.819, 525.059 102.001, 536.189 104.422 C 539.292 105.097, 539.573 104.794, 540.521 99.742 C 541.085 96.735, 540.920 96, 539.683 96 C 538.836 96, 537.436 95.293, 536.571 94.429 C 535.227 93.084, 535 89.258, 535 67.929 C 535 40.250, 535.710 42.798, 528.250 43.723 M 553.500 43.880 L 550.500 44.523 550.500 71.182 L 550.500 97.842 552.873 100.366 C 554.915 102.539, 563.735 105.599, 564.821 104.512 C 565.012 104.321, 565.415 102.328, 565.716 100.083 C 566.077 97.388, 565.879 96, 565.132 96 C 564.509 96, 563.100 95.100, 562 94 C 560.109 92.109, 560 90.667, 560 67.500 C 560 40.373, 560.549 42.369, 553.500 43.880 M 343.524 46.358 C 342.367 47.205, 341.667 48.955, 341.667 51 C 341.667 56.298, 347.784 59.073, 351.429 55.429 C 353.701 53.156, 353.476 47.325, 351.066 46.035 C 348.424 44.621, 345.743 44.736, 343.524 46.358 M 443.684 49.449 C 436.597 51.976, 433 56.977, 433 64.302 C 433 71.354, 436.057 74.850, 445.916 79.073 C 458.078 84.282, 460.994 87.708, 457.506 92.689 C 455.003 96.261, 447.217 96.536, 436.357 93.435 C 434.558 92.921, 434.015 93.426, 432.974 96.578 C 431.431 101.253, 432.438 102.183, 441.009 104.002 C 451.940 106.322, 463.506 103.406, 467.561 97.308 C 468.819 95.417, 469.435 92.672, 469.448 88.900 C 469.475 80.929, 466.520 77.348, 456.328 72.996 C 452.023 71.158, 447.488 68.753, 446.250 67.653 C 443.658 65.347, 443.274 60.848, 445.511 58.991 C 447.343 57.470, 456.424 57.432, 460.334 58.929 C 463.876 60.285, 464.562 59.857, 466.044 55.367 C 467.452 51.100, 466.942 50.590, 459.701 49.032 C 453.333 47.663, 448.327 47.793, 443.684 49.449 M 119.661 49.750 C 118.597 51.493, 114.915 101.657, 115.733 103.250 C 115.945 103.662, 118.275 104, 120.912 104 L 125.706 104 126.417 86.750 C 126.808 77.263, 127.469 69.152, 127.886 68.727 C 128.304 68.303, 131.485 74.490, 134.956 82.477 L 141.267 97 144.970 97 L 148.673 97 155.087 82.516 C 158.614 74.550, 161.769 68.025, 162.098 68.016 C 162.799 67.997, 164 86.075, 164 96.656 L 164 104 169.507 104 L 175.014 104 174.514 97.250 C 174.239 93.537, 173.529 83.750, 172.937 75.500 C 172.345 67.250, 171.554 58.025, 171.180 55 L 170.500 49.500 166 49.212 C 160.550 48.863, 161.068 48.157, 151.877 68.439 L 145.106 83.377 142.335 76.939 C 140.812 73.397, 137.201 65.662, 134.311 59.750 L 129.058 49 124.588 49 C 122.129 49, 119.912 49.337, 119.661 49.750 M 230.699 51.025 C 228.609 51.397, 226.414 52.186, 225.822 52.778 C 225.093 53.507, 224.890 60.428, 225.192 74.177 C 225.672 95.943, 226.390 99.278, 231.271 102.413 C 234.587 104.542, 242.065 105.329, 246.821 104.048 C 250.240 103.127, 251 102.490, 251 100.543 C 251 95.615, 250.147 94.912, 244.999 95.594 C 240.967 96.129, 239.900 95.900, 238.114 94.114 C 236.230 92.230, 236 90.855, 236 81.500 L 236 71 243 71 L 250 71 250 67 L 250 63 243 63 L 236 63 236 57.059 C 236 53.791, 235.662 50.945, 235.250 50.733 C 234.838 50.522, 232.790 50.653, 230.699 51.025 M 35.216 90.691 C 35.097 109.496, 35.337 125.091, 35.750 125.347 C 36.163 125.602, 36.385 115.616, 36.246 103.156 C 35.767 60.549, 35.432 56.499, 35.216 90.691 M 42 61 C 42 63.200, 42.450 65, 43 65 C 43.550 65, 44 63.200, 44 61 C 44 58.800, 43.550 57, 43 57 C 42.450 57, 42 58.800, 42 61 M 58.440 62.296 C 58.166 63.009, 58.081 70.096, 58.251 78.046 L 58.559 92.500 58.780 77.809 C 58.913 68.927, 59.413 62.863, 60.043 62.473 C 60.757 62.032, 60.994 67.694, 60.793 80.415 C 60.632 90.638, 60.837 99.002, 61.250 99.001 C 61.663 99.001, 62 90.450, 62 80 C 62 63.605, 61.790 61, 60.469 61 C 59.626 61, 58.713 61.583, 58.440 62.296 M 33.448 94.500 C 33.447 112.650, 33.582 120.216, 33.748 111.314 C 33.913 102.411, 33.914 87.561, 33.749 78.314 C 33.583 69.066, 33.448 76.350, 33.448 94.500 M 188.644 62.665 C 187.169 63.080, 186.912 63.810, 187.394 66.219 C 187.727 67.886, 188 69.689, 188 70.226 C 188 70.835, 190.618 70.940, 194.949 70.505 C 201.518 69.845, 202.038 69.947, 204.449 72.358 C 205.852 73.761, 207 75.774, 207 76.832 C 207 78.503, 206.443 78.692, 202.740 78.274 C 189.153 76.743, 179.475 86.769, 184.440 97.233 C 187.431 103.535, 198.332 106.065, 212.250 103.689 L 217 102.877 216.976 89.689 C 216.947 73.803, 216.096 69.635, 212.051 65.588 C 209.083 62.618, 208.611 62.493, 199.732 62.321 C 194.655 62.223, 189.665 62.378, 188.644 62.665 M 273.422 63.418 C 263.202 67.869, 259.035 84.349, 265.310 95.497 C 269.532 102.996, 281.944 106.834, 292 103.748 C 296.429 102.390, 296.495 102.306, 296.177 98.444 C 295.999 96.286, 295.749 94.415, 295.621 94.287 C 295.492 94.159, 293.628 94.540, 291.478 95.134 C 289.328 95.727, 285.330 95.998, 282.593 95.735 C 278.626 95.354, 277.149 94.673, 275.313 92.378 C 274.046 90.795, 273.008 88.713, 273.005 87.750 C 273 86.173, 274.281 86, 285.941 86 C 293.059 86, 299.111 85.630, 299.390 85.178 C 300.411 83.526, 298.043 71.534, 296.206 69.053 C 292.613 64.199, 288.184 61.997, 282.102 62.039 C 279.021 62.061, 275.115 62.681, 273.422 63.418 M 311.500 63.311 L 307.500 64.564 307.500 84.032 L 307.500 103.500 312.500 103.500 L 317.500 103.500 317.775 87.250 C 318.085 68.890, 316.957 70.934, 326.950 70.634 C 331.194 70.506, 331.434 70.338, 332.124 67.007 C 332.521 65.086, 332.619 63.286, 332.341 63.007 C 331.236 61.901, 315.257 62.134, 311.500 63.311 M 346.229 62.742 L 341.959 63.117 342.229 83.309 L 342.500 103.500 347.500 103.500 L 352.500 103.500 352.500 83.083 C 352.500 70.239, 352.129 62.611, 351.500 62.517 C 350.950 62.435, 348.578 62.536, 346.229 62.742 M 369.750 62.689 C 368.627 62.983, 368.005 64.106, 368.015 65.823 C 368.041 70.284, 368.988 70.810, 376.707 70.650 C 384.588 70.486, 386.352 71.393, 387.534 76.215 L 388.199 78.929 383.350 78.357 C 377.029 77.611, 370.943 79.317, 367.091 82.915 C 364.494 85.341, 364 86.545, 364 90.451 C 364 100.225, 369.241 104.286, 382 104.399 C 386.125 104.436, 391.188 104.115, 393.250 103.688 L 397 102.909 396.985 87.205 C 396.969 69.824, 396.477 67.912, 391.088 64.280 C 388.208 62.340, 386.497 62.017, 379.602 62.116 C 375.146 62.180, 370.712 62.438, 369.750 62.689 M 489.748 64.069 C 483.974 67.117, 480.828 72.675, 480.242 80.860 C 479.382 92.876, 483.890 100.702, 493.276 103.489 C 499.343 105.291, 502.205 105.364, 509.068 103.892 L 514.234 102.784 513.701 98.809 C 513.408 96.623, 512.988 94.655, 512.768 94.435 C 512.548 94.214, 510.825 94.477, 508.940 95.017 C 500.901 97.323, 493.952 95.526, 491.581 90.529 C 490.711 88.697, 490 86.928, 490 86.599 C 490 86.269, 496.137 86, 503.639 86 L 517.278 86 516.733 79.993 C 516.026 72.190, 513.314 67.066, 508.412 64.266 C 503.330 61.365, 495.036 61.277, 489.748 64.069 M 585.748 64.069 C 579.974 67.117, 576.828 72.675, 576.242 80.860 C 575.382 92.876, 579.890 100.702, 589.276 103.489 C 595.343 105.291, 598.205 105.364, 605.068 103.892 L 610.234 102.784 609.701 98.809 C 609.408 96.623, 608.993 94.659, 608.778 94.445 C 608.563 94.230, 606.629 94.540, 604.480 95.133 C 596.116 97.442, 588.390 94.479, 586.535 88.250 L 585.865 86 599.572 86 L 613.278 86 612.733 79.993 C 612.026 72.190, 609.314 67.066, 604.412 64.266 C 599.330 61.365, 591.036 61.277, 585.748 64.069 M 624.750 63.303 L 621 64.353 621 84.176 L 621 104 626 104 L 631 104 631 87.500 L 631 71 633.750 70.907 C 635.263 70.856, 638.357 70.887, 640.626 70.975 C 644.635 71.131, 644.772 71.030, 645.449 67.422 C 645.940 64.803, 645.756 63.461, 644.823 62.869 C 643.010 61.720, 629.349 62.015, 624.750 63.303 M 69 67.796 C 69 69.414, 70.358 70.218, 75.967 71.922 C 79.800 73.085, 83.625 74.302, 84.467 74.626 C 85.515 75.028, 86 74.609, 86 73.304 C 86 71.813, 84.407 70.882, 78.750 69.064 C 74.763 67.783, 70.938 66.521, 70.250 66.260 C 69.507 65.978, 69 66.602, 69 67.796 M 41.667 69.667 C 40.644 70.689, 40.875 74, 41.969 74 C 42.501 74, 42.661 73.280, 42.323 72.399 C 41.985 71.519, 42.337 70.400, 43.104 69.914 C 43.872 69.428, 44.013 69.024, 43.417 69.015 C 42.821 69.007, 42.033 69.300, 41.667 69.667 M 275.923 72.923 C 270.922 77.924, 271.821 79, 281 79 C 288.393 79, 289 78.845, 289 76.955 C 289 74.071, 284.592 70, 281.469 70 C 279.903 70, 277.668 71.179, 275.923 72.923 M 494.326 71.484 C 493.160 72.301, 491.733 74.326, 491.155 75.984 L 490.104 79 498.552 79 C 503.198 79, 507 78.842, 507 78.649 C 507 78.456, 506.495 76.849, 505.877 75.078 C 504.222 70.331, 498.510 68.554, 494.326 71.484 M 591.071 71.265 C 589.734 71.944, 588.046 73.963, 587.318 75.750 L 585.994 79 594.565 79 C 602.978 79, 603.123 78.959, 602.487 76.750 C 601.669 73.914, 597.427 69.995, 595.194 70.015 C 594.262 70.023, 592.407 70.585, 591.071 71.265 M 357 73.596 C 357 75.525, 360.117 81, 361.216 81 C 362.772 81, 361.958 75.272, 360.171 73.655 C 357.875 71.577, 357 71.561, 357 73.596 M 49.500 89.500 C 49.500 98.575, 49.837 106, 50.250 106 C 50.663 106, 51 98.575, 51 89.500 C 51 80.425, 50.663 73, 50.250 73 C 49.837 73, 49.500 80.425, 49.500 89.500 M 41.667 76.667 C 41.300 77.033, 41 78.206, 41 79.274 C 41 80.601, 41.473 81.022, 42.500 80.607 C 43.325 80.273, 44.636 79.742, 45.413 79.427 C 46.259 79.083, 47.014 79.584, 47.297 80.677 C 47.675 82.139, 47.791 82.054, 47.884 80.250 C 48.013 77.753, 46.904 77.446, 43.788 79.113 C 41.941 80.102, 41.769 79.990, 42.260 78.113 C 42.847 75.868, 42.736 75.597, 41.667 76.667 M 66.136 77.715 C 66.001 79.916, 68.594 82.076, 71.184 81.921 C 71.908 81.878, 71.290 81.399, 69.811 80.858 C 68.289 80.301, 66.938 78.926, 66.697 77.687 L 66.272 75.500 66.136 77.715 M 83.878 78.904 C 84.636 79.384, 84.947 80.277, 84.569 80.888 C 84.191 81.500, 84.359 82, 84.941 82 C 85.523 82, 86 81.100, 86 80 C 86 78.756, 85.338 78.006, 84.250 78.015 C 82.866 78.027, 82.788 78.213, 83.878 78.904 M 42.750 83.080 C 40.950 84.128, 40.287 88, 41.906 88 C 42.405 88, 42.599 87.183, 42.338 86.183 C 42.023 84.981, 42.647 83.990, 44.181 83.251 C 45.457 82.637, 46.050 82.119, 45.500 82.098 C 44.950 82.078, 43.712 82.519, 42.750 83.080 M 66.202 89.223 L 66.500 95.446 75.750 98.293 C 80.838 99.859, 85 101.517, 85 101.977 C 85 102.436, 83.987 102.621, 82.750 102.386 C 80.653 101.988, 80.636 102.024, 82.500 102.909 C 85.451 104.311, 86 104.195, 86 102.166 C 86 100.712, 84.028 99.749, 76.500 97.526 L 67 94.720 67 89.244 C 67 84.046, 67.115 83.799, 69.250 84.391 C 74.584 85.871, 76.367 85.964, 73 84.585 C 66.382 81.876, 65.868 82.227, 66.202 89.223 M 78.500 84.536 C 80.150 85.292, 82.287 85.930, 83.250 85.955 C 85.266 86.007, 85.599 87.592, 83.750 88.338 C 83.030 88.628, 83.273 88.876, 84.323 88.921 C 87.991 89.080, 85.543 85.731, 81 84.374 C 75.405 82.703, 74.610 82.755, 78.500 84.536 M 46.677 86.601 C 47.015 87.481, 46.663 88.641, 45.896 89.177 C 44.734 89.989, 44.751 90.084, 46 89.748 C 47.701 89.289, 48.696 85, 47.101 85 C 46.530 85, 46.339 85.720, 46.677 86.601 M 195 88 C 192.592 90.408, 192.553 90.917, 194.557 93.777 C 195.841 95.611, 197.065 96, 201.557 96 L 207 96 207 91 L 207 86 202 86 C 198.333 86, 196.467 86.533, 195 88 M 375.655 87.829 C 373.430 90.287, 373.563 93.696, 375.934 94.965 C 376.998 95.534, 380.148 96, 382.934 96 L 388 96 388 91 L 388 86 382.655 86 C 378.747 86, 376.865 86.492, 375.655 87.829 M 69 90.081 C 69 91.136, 69.477 92, 70.059 92 C 70.641 92, 70.801 91.488, 70.414 90.862 C 69.907 90.041, 70.797 89.926, 73.605 90.451 C 78.375 91.342, 77.861 90.581, 72.750 89.185 C 69.363 88.260, 69 88.347, 69 90.081 M 80.921 92.389 C 82.803 93.069, 84.684 94.497, 85.101 95.563 C 85.814 97.384, 85.864 97.371, 85.930 95.348 C 85.980 93.803, 85.111 92.886, 82.851 92.098 C 81.119 91.494, 79.206 91.034, 78.601 91.076 C 77.995 91.118, 79.040 91.709, 80.921 92.389 M 46.677 93.601 C 47.015 94.481, 46.663 95.641, 45.896 96.177 C 44.734 96.989, 44.751 97.084, 46 96.748 C 47.701 96.289, 48.696 92, 47.101 92 C 46.530 92, 46.339 92.720, 46.677 93.601 M 78 94.500 C 79.925 95.241, 82.175 95.848, 83 95.848 C 83.825 95.848, 82.925 95.241, 81 94.500 C 79.075 93.759, 76.825 93.152, 76 93.152 C 75.175 93.152, 76.075 93.759, 78 94.500 M 66 100.500 C 66 101.875, 66.408 103, 66.906 103 C 67.405 103, 67.577 102.100, 67.290 101 C 66.660 98.591, 67.151 98.559, 73.917 100.568 C 76.821 101.430, 79.390 101.943, 79.626 101.707 C 80.083 101.250, 69.176 98, 67.184 98 C 66.533 98, 66 99.125, 66 100.500 M 61.392 114 C 61.392 121.425, 61.549 124.463, 61.742 120.750 C 61.934 117.037, 61.934 110.963, 61.742 107.250 C 61.549 103.537, 61.392 106.575, 61.392 114 M 66.430 106.321 C 66.151 107.048, 66.056 112.110, 66.219 117.571 L 66.514 127.500 67.007 116.248 C 67.278 110.059, 67.373 104.997, 67.219 104.998 C 67.064 104.999, 66.709 105.595, 66.430 106.321 M 80 106.631 C 85.546 108.656, 85.806 108.879, 83.971 110.039 C 82.737 110.819, 82.782 110.972, 84.250 110.985 C 85.213 110.993, 86 110.314, 86 109.475 C 86 107.921, 83.064 106.425, 78.206 105.502 C 76.718 105.219, 77.525 105.727, 80 106.631 M 49.778 115.248 C 50.281 126.534, 50.677 127.655, 50.840 118.250 C 50.928 113.162, 50.663 108.999, 50.250 108.998 C 49.837 108.997, 49.625 111.810, 49.778 115.248 M 69.183 118.750 L 69.367 127.500 69.933 119.500 C 70.258 114.920, 70.936 111.574, 71.519 111.673 C 72.079 111.768, 73.879 112.110, 75.519 112.432 C 78.272 112.973, 78.232 112.908, 75 111.585 C 69.005 109.131, 68.982 109.158, 69.183 118.750 M 47.328 120.500 C 47.333 124.350, 47.513 125.802, 47.730 123.728 C 47.946 121.653, 47.943 118.503, 47.722 116.728 C 47.501 114.952, 47.324 116.650, 47.328 120.500 M 72.193 120.750 L 72.385 127.500 72.741 121.243 C 73.092 115.046, 73.122 114.991, 75.798 115.508 C 78.058 115.945, 78.173 115.876, 76.500 115.086 C 72.392 113.145, 71.991 113.673, 72.193 120.750 M 83.250 114.631 C 86.394 115.558, 85.144 117.184, 81.750 116.582 C 79.281 116.144, 78.981 116.228, 80.500 116.932 C 81.600 117.442, 83.320 117.891, 84.323 117.930 C 86.865 118.028, 86.069 114.584, 83.489 114.319 C 81.928 114.159, 81.877 114.226, 83.250 114.631 M 30.252 121.500 C 30.263 123.700, 30.468 124.482, 30.707 123.238 C 30.946 121.994, 30.937 120.194, 30.687 119.238 C 30.437 118.282, 30.241 119.300, 30.252 121.500 M 43.250 119.631 C 45.192 120.203, 45.554 121.559, 43.975 122.342 C 43.411 122.621, 43.524 122.734, 44.225 122.592 C 46.274 122.177, 45.691 119.547, 43.500 119.321 C 41.946 119.161, 41.890 119.230, 43.250 119.631 M 85.250 130.742 C 88.963 130.934, 95.037 130.934, 98.750 130.742 C 102.463 130.549, 99.425 130.392, 92 130.392 C 84.575 130.392, 81.537 130.549, 85.250 130.742" stroke="none" fill="#ece19b" fill-rule="evenodd"/></svg>